<?xml version="1.0" encoding="utf-8"?>
<!-- Generator: Adobe Illustrator 15.0.2, SVG Export Plug-In . SVG Version: 6.00 Build 0)  -->
<!DOCTYPE svg PUBLIC "-//W3C//DTD SVG 1.1//EN" "http://www.w3.org/Graphics/SVG/1.1/DTD/svg11.dtd">
<svg version="1.1" id="Layer_1" xmlns="http://www.w3.org/2000/svg" xmlns:xlink="http://www.w3.org/1999/xlink" x="0px" y="0px"
	 width="527px" height="527px" viewBox="0 0 527 527" enable-background="new 0 0 527 527" xml:space="preserve">
<g>
	<defs>
		<rect id="SVGID_1_" width="527" height="527"/>
	</defs>
	<clipPath id="SVGID_2_">
		<use xlink:href="#SVGID_1_"  overflow="visible"/>
	</clipPath>
	<path clip-path="url(#SVGID_2_)" fill="#FFFFFF" d="M149.82,75.076c-3.554,1.686-6.463,6.283-6.463,10.218v282.651
		c0,3.934,2.975,8.382,6.612,9.885l44.858,18.543c3.637,1.503,9.614,1.576,13.286,0.165l44.74-17.216
		c3.67-1.412,6.675-5.787,6.675-9.72V85.294c0-3.935-2.908-8.532-6.463-10.218L207.9,53.657c-3.554-1.684-9.371-1.684-12.924,0.001
		L149.82,75.076"/>
	<path clip-path="url(#SVGID_2_)" d="M201.751,401.317L201.751,401.317c-3.111,0-6.082-0.52-8.363-1.464l-44.86-18.543
		c-5.012-2.071-8.938-7.943-8.938-13.365V85.294c0-5.348,3.784-11.33,8.616-13.623l45.154-21.417
		c2.214-1.05,5.083-1.628,8.078-1.628c2.996,0,5.864,0.578,8.077,1.627l45.166,21.419c4.831,2.29,8.615,8.274,8.615,13.622v284.309
		c0,5.463-3.992,11.275-9.09,13.237l-44.74,17.214C207.347,400.868,204.606,401.317,201.751,401.317 M201.438,56.162
		c-1.873,0-3.641,0.328-4.848,0.901l-45.154,21.418c-2.256,1.069-4.31,4.316-4.31,6.813v282.651c0,2.424,2.041,5.476,4.281,6.401
		l44.861,18.545c1.35,0.558,3.399,0.89,5.483,0.89c1.925,0,3.751-0.276,5.009-0.762l44.74-17.214
		c2.23-0.857,4.262-3.813,4.262-6.203V85.294c0-2.497-2.056-5.743-4.311-6.812l-45.165-21.419
		C205.079,56.49,203.312,56.162,201.438,56.162z"/>
	<path clip-path="url(#SVGID_2_)" fill="#FFFFFF" d="M265.99,75.076c-3.553,1.686-6.462,6.283-6.462,10.218v282.651
		c0,3.934,2.975,8.382,6.61,9.885l44.867,18.543c3.636,1.503,9.612,1.576,13.285,0.165l44.734-17.216
		c3.671-1.412,6.676-5.787,6.676-9.72V85.294c0-3.935-2.909-8.532-6.463-10.218l-45.161-21.418c-3.554-1.685-9.37-1.685-12.924,0
		L265.99,75.076"/>
	<path clip-path="url(#SVGID_2_)" d="M317.928,401.317C317.927,401.317,317.928,401.317,317.928,401.317
		c-3.11,0-6.082-0.52-8.361-1.464l-44.867-18.543c-5.012-2.071-8.937-7.943-8.937-13.365V85.294c0-5.348,3.782-11.33,8.613-13.623
		l45.163-21.417c2.213-1.05,5.081-1.628,8.077-1.628s5.862,0.578,8.076,1.628l45.16,21.417c4.832,2.293,8.614,8.275,8.614,13.623
		v284.309c0,5.463-3.992,11.275-9.09,13.237l-44.733,17.214C323.521,400.868,320.783,401.317,317.928,401.317 M317.615,56.162
		c-1.875,0-3.641,0.328-4.849,0.901l-45.163,21.418c-2.253,1.069-4.308,4.316-4.308,6.813v282.651c0,2.424,2.041,5.476,4.281,6.401
		l44.867,18.545c1.351,0.558,3.4,0.89,5.482,0.89h0.001c1.925,0,3.75-0.276,5.01-0.762l44.733-17.214
		c2.23-0.857,4.261-3.813,4.261-6.203V85.294c0-2.497-2.055-5.744-4.309-6.813l-45.161-21.418
		C321.255,56.49,319.488,56.162,317.615,56.162z"/>
	<path clip-path="url(#SVGID_2_)" fill="#FEBE10" d="M143.357,103.287V88.26c0,0-4.922-11.707,20.235-19.719
		c16.205-7.684,37.846-16.29,37.846-16.29v346.855l-48.485-20.039c0,0-9.984-0.656-9.984-22.182
		C142.969,335.364,143.357,103.287,143.357,103.287"/>
	<path clip-path="url(#SVGID_2_)" fill="#FEBE10" d="M375.7,348.072v20.086c0,0,4.922,6.645-20.24,14.658
		c-16.206,7.683-37.845,16.29-37.845,16.29V52.251l48.483,20.034c0,0,9.984,0.658,9.984,22.186
		C376.083,115.987,375.7,348.072,375.7,348.072"/>
	<path clip-path="url(#SVGID_2_)" d="M196.98,401.472L196.98,401.472c-1.246,0-2.517-0.266-3.782-0.787l-44.869-18.543
		c-5.014-2.073-8.938-7.945-8.938-13.368V86.117c0-5.347,3.784-11.331,8.615-13.621l45.165-21.414
		c1.384-0.657,2.778-0.989,4.142-0.989c4.463,0,7.704-1.348,7.704,3.567v343.656c0,2.411-0.745-0.013-2.153,1.57
		C201.382,400.554,199.293,401.472,196.98,401.472 M197.325,57.635c-0.191,0.003-0.482,0.046-0.925,0.256l-45.166,21.413
		c-2.254,1.071-4.307,4.317-4.307,6.813v282.656c0,2.424,2.04,5.475,4.281,6.402l44.869,18.544c0.338,0.14,0.658,0.216,0.903,0.216
		c0.093,0,0.21-0.01,0.251-0.056c0.092-0.104,0.249-0.45,0.249-1.098V58.575C197.48,58.07,197.389,57.767,197.325,57.635z"/>
	<path clip-path="url(#SVGID_2_)" d="M322.243,401.58L322.243,401.58c-4.753,0-8.203,1.396-8.203-3.701V54.881
		c0-4.914,3.239-4.788,7.703-4.788c1.365,0,2.759,0.332,4.143,0.988l45.159,21.415c4.833,2.29,8.616,8.273,8.616,13.621v284.314
		c0,5.463-3.992,11.275-9.09,13.237l-44.735,17.214C324.635,401.346,323.427,401.58,322.243,401.58 M321.733,57.629
		c-0.062,0.128-0.158,0.433-0.158,0.946v334.207c0,1.26,0.47,1.26,0.668,1.26c0.176,0,0.471-0.032,0.889-0.193l44.733-17.214
		c2.231-0.857,4.262-3.813,4.262-6.203V86.117c0-2.496-2.056-5.742-4.311-6.812l-45.158-21.414
		C322.142,57.647,321.819,57.654,321.733,57.629z"/>
	<path clip-path="url(#SVGID_2_)" fill="#FEBE10" d="M368.8,249.777c0,4.062-3.325,7.388-7.387,7.388H157.646
		c-4.064,0-7.389-3.326-7.389-7.388v-43.518c0-4.065,3.325-7.39,7.389-7.39h203.767c4.062,0,7.387,3.325,7.387,7.39V249.777"/>
	<rect x="197.334" y="253.397" clip-path="url(#SVGID_2_)" width="124.328" height="7.536"/>
	<rect x="197.334" y="193.528" clip-path="url(#SVGID_2_)" width="124.328" height="7.537"/>
	<polyline clip-path="url(#SVGID_2_)" points="234.89,190.938 199.682,174.832 202.815,167.98 238.024,184.085 234.89,190.938 	"/>
	<polyline clip-path="url(#SVGID_2_)" points="257.756,181.401 199.682,154.835 202.815,147.982 260.892,174.548 257.756,181.401 	
		"/>
	<polyline clip-path="url(#SVGID_2_)" points="257.756,161.403 199.682,134.838 202.815,127.985 260.892,154.551 257.756,161.403 	
		"/>
	<polyline clip-path="url(#SVGID_2_)" points="257.756,141.407 199.682,114.84 202.815,107.987 260.892,134.553 257.756,141.407 	
		"/>
	<polyline clip-path="url(#SVGID_2_)" points="257.756,121.408 199.682,94.842 202.815,87.99 260.892,114.557 257.756,121.408 	"/>
	<polyline clip-path="url(#SVGID_2_)" points="257.756,101.412 199.682,74.846 202.815,67.993 260.892,94.56 257.756,101.412 	"/>
	<polyline clip-path="url(#SVGID_2_)" points="316.301,298.683 258.22,273.333 261.235,266.427 319.314,291.776 316.301,298.683 	
		"/>
	<polyline clip-path="url(#SVGID_2_)" points="316.301,319.276 258.22,293.927 261.235,287.02 319.314,312.369 316.301,319.276 	"/>
	<polyline clip-path="url(#SVGID_2_)" points="316.333,278.104 274.849,260.456 277.799,253.522 319.282,271.168 316.333,278.104 	
		"/>
	<polyline clip-path="url(#SVGID_2_)" points="316.301,298.683 258.22,273.333 261.235,266.427 319.314,291.776 316.301,298.683 	
		"/>
	<polyline clip-path="url(#SVGID_2_)" points="316.301,339.875 258.22,314.519 261.235,307.611 319.314,332.968 316.301,339.875 	
		"/>
	<polyline clip-path="url(#SVGID_2_)" points="316.301,360.468 258.22,335.111 261.235,328.205 319.314,353.562 316.301,360.468 	
		"/>
	<polyline clip-path="url(#SVGID_2_)" points="316.301,381.061 258.22,355.705 261.235,348.799 319.314,374.153 316.301,381.061 	
		"/>
	<polyline clip-path="url(#SVGID_2_)" fill="#FFFFFF" points="317.408,197.297 259.323,177.975 201.238,197.297 317.408,197.297 	
		"/>
	<path clip-path="url(#SVGID_2_)" d="M317.408,201.065h-116.17c-1.847,0-3.424-1.341-3.72-3.165
		c-0.295-1.825,0.777-3.595,2.531-4.179l58.086-19.322c0.772-0.257,1.606-0.257,2.378,0l58.085,19.322
		c1.754,0.584,2.825,2.354,2.528,4.179C320.834,199.724,319.257,201.065,317.408,201.065 M224.503,193.528h69.644l-34.823-11.582
		L224.503,193.528z"/>
	<path clip-path="url(#SVGID_2_)" d="M305.716,398.266c6.093,2.319,10.347,4.209,13.599,4.209c3.255,0,11.419-3.477,14.106-4.511
		C336.107,396.932,305.716,398.266,305.716,398.266"/>
	<path clip-path="url(#SVGID_2_)" d="M187.507,398.266c6.092,2.319,10.347,4.209,13.599,4.209s11.417-3.477,14.104-4.511
		C217.898,396.932,187.507,398.266,187.507,398.266"/>
	<path clip-path="url(#SVGID_2_)" d="M142.554,493.839h-6.062c-0.719,0-1.026-0.279-1.026-0.932V468.15
		c0-0.652-0.311-0.932-1.027-0.932h-22.911c-0.718,0-1.029,0.279-1.029,0.932v24.757c0,0.652-0.311,0.932-1.026,0.932h-5.96
		c-0.718,0-1.029-0.279-1.029-0.932v-56.982c0-0.656,0.311-0.935,1.029-0.935h5.96c0.715,0,1.026,0.278,1.026,0.935v23.911
		c0,0.657,0.311,0.938,1.029,0.938h22.911c0.716,0,1.027-0.28,1.027-0.938v-23.911c0-0.656,0.307-0.935,1.026-0.935h6.062
		c0.721,0,1.026,0.278,1.026,0.935v56.982C143.58,493.56,143.275,493.839,142.554,493.839"/>
</g>
<g>
	<defs>
		<rect id="SVGID_3_" y="0.421" width="526.579" height="526.52"/>
	</defs>
	<clipPath id="SVGID_4_">
		<use xlink:href="#SVGID_3_"  overflow="visible"/>
	</clipPath>
	<g clip-path="url(#SVGID_4_)">
		<defs>
			<rect id="SVGID_5_" width="527" height="527"/>
		</defs>
		<clipPath id="SVGID_6_">
			<use xlink:href="#SVGID_5_"  overflow="visible"/>
		</clipPath>
		<path clip-path="url(#SVGID_6_)" fill="none" stroke="#000000" stroke-width="6.7" stroke-miterlimit="10" d="M142.554,493.839
			h-6.062c-0.719,0-1.026-0.279-1.026-0.932V468.15c0-0.652-0.311-0.932-1.027-0.932h-22.911c-0.718,0-1.029,0.279-1.029,0.932
			v24.757c0,0.652-0.311,0.932-1.026,0.932h-5.96c-0.718,0-1.029-0.279-1.029-0.932v-56.982c0-0.656,0.311-0.935,1.029-0.935h5.96
			c0.715,0,1.026,0.278,1.026,0.935v23.911c0,0.657,0.311,0.938,1.029,0.938h22.911c0.716,0,1.027-0.28,1.027-0.938v-23.911
			c0-0.656,0.307-0.935,1.026-0.935h6.062c0.721,0,1.026,0.278,1.026,0.935v56.982C143.58,493.56,143.275,493.839,142.554,493.839z"
			/>
	</g>
</g>
<g>
	<defs>
		<rect id="SVGID_7_" width="527" height="527"/>
	</defs>
	<clipPath id="SVGID_8_">
		<use xlink:href="#SVGID_7_"  overflow="visible"/>
	</clipPath>
	<path clip-path="url(#SVGID_8_)" d="M201.198,493.839h-6.473c-0.514,0-0.921-0.188-1.027-0.653l-3.905-12.611
		c-0.103-0.466-0.513-0.562-1.026-0.562h-18.494c-0.513,0-0.925,0.096-1.025,0.562l-3.906,12.611
		c-0.099,0.466-0.513,0.653-1.027,0.653h-5.956c-0.927,0-1.234-0.467-1.032-1.216l19.109-56.977
		c0.106-0.467,0.516-0.656,1.027-0.656h4.73c0.513,0,0.921,0.189,1.027,0.656l19.004,56.977
		C202.429,493.372,202.121,493.839,201.198,493.839 M181.268,451.617c-0.927-3.362-1.44-6.726-1.44-6.726h-0.307
		c0,0-0.514,3.269-1.542,6.726l-6.164,20.735c-0.206,0.655,0.103,1.215,1.027,1.215h13.254c0.924,0,1.231-0.56,1.026-1.215
		L181.268,451.617z"/>
</g>
<g>
	<defs>
		<rect id="SVGID_9_" y="0.421" width="526.579" height="526.52"/>
	</defs>
	<clipPath id="SVGID_10_">
		<use xlink:href="#SVGID_9_"  overflow="visible"/>
	</clipPath>
	<g clip-path="url(#SVGID_10_)">
		<defs>
			<rect id="SVGID_11_" width="527" height="527"/>
		</defs>
		<clipPath id="SVGID_12_">
			<use xlink:href="#SVGID_11_"  overflow="visible"/>
		</clipPath>
		<path clip-path="url(#SVGID_12_)" fill="none" stroke="#000000" stroke-width="6.7" stroke-miterlimit="10" d="M201.198,493.839
			h-6.473c-0.514,0-0.921-0.188-1.027-0.653l-3.905-12.611c-0.103-0.466-0.513-0.562-1.026-0.562h-18.494
			c-0.513,0-0.925,0.096-1.025,0.562l-3.906,12.611c-0.099,0.466-0.513,0.653-1.027,0.653h-5.956c-0.927,0-1.234-0.467-1.032-1.216
			l19.109-56.977c0.106-0.467,0.516-0.656,1.027-0.656h4.73c0.513,0,0.921,0.189,1.027,0.656l19.004,56.977
			C202.429,493.372,202.121,493.839,201.198,493.839z M181.268,451.617c-0.927-3.362-1.44-6.726-1.44-6.726h-0.307
			c0,0-0.514,3.269-1.542,6.726l-6.164,20.735c-0.206,0.655,0.103,1.215,1.027,1.215h13.254c0.924,0,1.231-0.56,1.026-1.215
			L181.268,451.617z"/>
	</g>
</g>
<g>
	<defs>
		<rect id="SVGID_13_" width="527" height="527"/>
	</defs>
	<clipPath id="SVGID_14_">
		<use xlink:href="#SVGID_13_"  overflow="visible"/>
	</clipPath>
	<path clip-path="url(#SVGID_14_)" d="M310.089,493.654h-7.602c-0.308,0-0.722-0.185-0.927-0.469l-18.391-27.274
		c-0.411-0.56-1.026-0.652-1.437-0.092l-7.194,8.312v18.589c0,0.654-0.305,0.934-1.025,0.934h-5.958
		c-0.721,0-1.029-0.279-1.029-0.934v-56.98c0-0.655,0.309-0.934,1.029-0.934h5.958c0.721,0,1.025,0.278,1.025,0.934v26.343
		c0,1.118,1.132,1.494,1.854,0.558l23.011-27.461c0.207-0.187,0.513-0.373,0.821-0.373h6.985c1.133,0,1.543,0.747,0.821,1.494
		l-19.109,21.482c-0.615,0.659-0.615,1.216-0.103,1.868l22.19,32.603C311.526,493.001,311.115,493.654,310.089,493.654"/>
</g>
<g>
	<defs>
		<rect id="SVGID_15_" y="0.421" width="526.579" height="526.52"/>
	</defs>
	<clipPath id="SVGID_16_">
		<use xlink:href="#SVGID_15_"  overflow="visible"/>
	</clipPath>
	<g clip-path="url(#SVGID_16_)">
		<defs>
			<rect id="SVGID_17_" width="527" height="527"/>
		</defs>
		<clipPath id="SVGID_18_">
			<use xlink:href="#SVGID_17_"  overflow="visible"/>
		</clipPath>
		<path clip-path="url(#SVGID_18_)" fill="none" stroke="#000000" stroke-width="6.7" stroke-miterlimit="10" d="M310.089,493.654
			h-7.602c-0.308,0-0.722-0.185-0.927-0.469l-18.391-27.274c-0.411-0.56-1.026-0.652-1.437-0.092l-7.194,8.312v18.589
			c0,0.654-0.305,0.934-1.025,0.934h-5.958c-0.721,0-1.029-0.279-1.029-0.934v-56.98c0-0.655,0.309-0.934,1.029-0.934h5.958
			c0.721,0,1.025,0.278,1.025,0.934v26.343c0,1.118,1.132,1.494,1.854,0.558l23.011-27.461c0.207-0.187,0.513-0.373,0.821-0.373
			h6.985c1.133,0,1.543,0.747,0.821,1.494l-19.109,21.482c-0.615,0.659-0.615,1.216-0.103,1.868l22.19,32.603
			C311.526,493.001,311.115,493.654,310.089,493.654z"/>
	</g>
</g>
<g>
	<defs>
		<rect id="SVGID_19_" width="527" height="527"/>
	</defs>
	<clipPath id="SVGID_20_">
		<use xlink:href="#SVGID_19_"  overflow="visible"/>
	</clipPath>
	<path clip-path="url(#SVGID_20_)" d="M251.768,452.068v-1.932c0-8.264-5.789-14.302-15.079-15.403
		c-0.449-0.111-0.92-0.196-1.425-0.196h-4.869v0.063c-10.121,0.621-16.501,6.854-16.501,15.536v29.519
		c0,8.768,6.38,14.925,16.501,15.538v0.061h4.869c0.635,0,1.163-0.087,1.615-0.216c9.178-1.157,14.889-7.173,14.889-15.383v-1.932
		h-8.116v1.932c0,5.137-4.523,9.151-10.073,9.151h-1.499c-5.653,0-10.068-4.201-10.068-9.151v-29.519
		c0-5.137,4.52-9.152,10.068-9.152h1.499c5.55,0,10.073,4.016,10.073,9.152v1.932H251.768"/>
</g>
<g>
	<defs>
		<rect id="SVGID_21_" y="0.421" width="526.579" height="526.52"/>
	</defs>
	<clipPath id="SVGID_22_">
		<use xlink:href="#SVGID_21_"  overflow="visible"/>
	</clipPath>
	<g clip-path="url(#SVGID_22_)">
		<defs>
			<rect id="SVGID_23_" width="527" height="527"/>
		</defs>
		<clipPath id="SVGID_24_">
			<use xlink:href="#SVGID_23_"  overflow="visible"/>
		</clipPath>
		<path clip-path="url(#SVGID_24_)" fill="none" stroke="#000000" stroke-width="6.7" stroke-miterlimit="10" d="M251.768,452.068
			v-1.932c0-8.264-5.789-14.302-15.079-15.403c-0.449-0.111-0.92-0.196-1.425-0.196h-4.869v0.063
			c-10.121,0.621-16.501,6.854-16.501,15.536v29.519c0,8.768,6.38,14.925,16.501,15.538v0.061h4.869
			c0.635,0,1.163-0.087,1.615-0.216c9.178-1.157,14.889-7.173,14.889-15.383v-1.932h-8.116v1.932c0,5.137-4.523,9.151-10.073,9.151
			h-1.499c-5.653,0-10.068-4.201-10.068-9.151v-29.519c0-5.137,4.52-9.152,10.068-9.152h1.499c5.55,0,10.073,4.016,10.073,9.152
			v1.932H251.768z"/>
	</g>
</g>
<g>
	<defs>
		<rect id="SVGID_25_" width="527" height="527"/>
	</defs>
	<clipPath id="SVGID_26_">
		<use xlink:href="#SVGID_25_"  overflow="visible"/>
	</clipPath>
	<path clip-path="url(#SVGID_26_)" d="M424.049,450.393l-0.006-2.143c-0.016-9.199-6.467-15.901-16.804-17.103
		c-0.5-0.128-1.021-0.22-1.589-0.217l-1.865,0.005h-1.677l-1.868,0.007v0.066c-11.262,0.714-18.347,7.663-18.325,17.32l0.063,32.834
		c0.016,9.755,7.125,16.592,18.391,17.257l0.002,0.064l1.868-0.006h1.675l1.868-0.006c0.708,0,1.289-0.101,1.8-0.245
		c10.204-1.308,16.543-8.013,16.525-17.143l-0.006-2.146l-9.025,0.015l0.002,2.147c0.011,5.717-5.007,10.193-11.18,10.204
		l-1.675,0.005c-6.283,0.011-11.209-4.654-11.217-10.161l-0.061-32.834c-0.014-5.717,5.005-10.198,11.178-10.208l1.674-0.003
		c6.171-0.011,11.204,4.447,11.218,10.162l0.006,2.145L424.049,450.393"/>
	
		<path clip-path="url(#SVGID_26_)" fill="none" stroke="#000000" stroke-width="0.431" stroke-linejoin="round" stroke-miterlimit="10" d="
		M424.049,450.393l-0.006-2.143c-0.016-9.199-6.467-15.901-16.804-17.103c-0.5-0.128-1.021-0.22-1.589-0.217l-1.865,0.005h-1.677
		l-1.868,0.007v0.066c-11.262,0.714-18.347,7.663-18.325,17.32l0.063,32.834c0.016,9.755,7.125,16.592,18.391,17.257l0.002,0.064
		l1.868-0.006h1.675l1.868-0.006c0.708,0,1.289-0.101,1.8-0.245c10.204-1.308,16.543-8.013,16.525-17.143l-0.006-2.146l-9.025,0.015
		l0.002,2.147c0.011,5.717-5.007,10.193-11.18,10.204l-1.675,0.005c-6.283,0.011-11.209-4.654-11.217-10.161l-0.061-32.834
		c-0.014-5.717,5.005-10.198,11.178-10.208l1.674-0.003c6.171-0.011,11.204,4.447,11.218,10.162l0.006,2.145L424.049,450.393z"/>
	<path clip-path="url(#SVGID_26_)" d="M372.41,480.779c0-12.072-8.998-16.676-17.44-20.151c-7.989-3.272-15.304-6.039-15.304-12.178
		c0-5.931,4.279-10.025,11.031-10.025h1.797c3.823,0,7.654,1.947,10.018,5.628c0.337,0.515,0.784,0.716,1.347,0.408l5.966-2.657
		c0.674-0.309,0.897-0.819,0.562-1.432c-1.016-1.639-2.139-3.174-3.712-4.505c-3.042-2.658-7.542-4.5-14.181-4.5h-1.797
		c-11.932,0-19.92,7.263-19.92,17.083c0,11.868,9.789,15.857,18.456,19.44c7.536,3.068,14.399,6.036,14.399,12.889
		c0,4.558-3.32,8.31-7.815,9.573c-0.101,0.021-11.768,2.679-18.541-8.269c-3.295,2.108-6.688,5.119-6.688,5.119
		s8.465,12.888,24.377,11.211c0.008-0.021,0.013-0.039,0.023-0.062C366.234,497.715,372.41,490.36,372.41,480.779"/>
	
		<path clip-path="url(#SVGID_26_)" fill="none" stroke="#000000" stroke-width="0.419" stroke-linejoin="round" stroke-miterlimit="10" d="
		M372.41,480.779c0-12.072-8.998-16.676-17.44-20.151c-7.989-3.272-15.304-6.039-15.304-12.178c0-5.931,4.279-10.025,11.031-10.025
		h1.797c3.823,0,7.654,1.947,10.018,5.628c0.337,0.515,0.784,0.716,1.347,0.408l5.966-2.657c0.674-0.309,0.897-0.819,0.562-1.432
		c-1.016-1.639-2.139-3.174-3.712-4.505c-3.042-2.658-7.542-4.5-14.181-4.5h-1.797c-11.932,0-19.92,7.263-19.92,17.083
		c0,11.868,9.789,15.857,18.456,19.44c7.536,3.068,14.399,6.036,14.399,12.889c0,4.558-3.32,8.31-7.815,9.573
		c-0.101,0.021-11.768,2.679-18.541-8.269c-3.295,2.108-6.688,5.119-6.688,5.119s8.465,12.888,24.377,11.211
		c0.008-0.021,0.013-0.039,0.023-0.062C366.234,497.715,372.41,490.36,372.41,480.779z"/>
</g>
</svg>
