<?xml version="1.0" encoding="utf-8"?>
<!-- Generator: Adobe Illustrator 15.0.2, SVG Export Plug-In . SVG Version: 6.00 Build 0)  -->
<!DOCTYPE svg PUBLIC "-//W3C//DTD SVG 1.1//EN" "http://www.w3.org/Graphics/SVG/1.1/DTD/svg11.dtd">
<svg version="1.1" id="Layer_1" xmlns="http://www.w3.org/2000/svg" xmlns:xlink="http://www.w3.org/1999/xlink" x="0px" y="0px"
	 width="130.919px" height="132.012px" viewBox="0 0 130.919 132.012" enable-background="new 0 0 130.919 132.012"
	 xml:space="preserve">
<g opacity="0.53">
	<path display="none" d="M133.818,133.653c0,0.918-0.74,1.666-1.648,1.666H-1.253c-0.905,0-1.646-0.748-1.646-1.666V-1.637
		c0-0.925,0.741-1.67,1.646-1.67h133.423c0.908,0,1.648,0.746,1.648,1.67V133.653z"/>
	<g opacity="0.31">
		<path fill="none" stroke="#FEBE10" stroke-width="4" stroke-miterlimit="10" d="M88.22,23.477c0,2.87-2.322,5.192-5.195,5.192
			s-5.193-2.322-5.193-5.192c0-2.867,2.32-5.194,5.193-5.194S88.22,20.61,88.22,23.477z"/>
		<path fill="none" stroke="#FEBE10" stroke-width="4" stroke-miterlimit="10" d="M29.947,60.771c0,2.867-2.327,5.193-5.192,5.193
			c-2.873,0-5.194-2.327-5.194-5.193c0-2.866,2.322-5.194,5.194-5.194C27.62,55.578,29.947,57.905,29.947,60.771z"/>
		<path fill="none" stroke="#FEBE10" stroke-width="4" stroke-miterlimit="10" d="M111.359,72.022c0,2.865-2.33,5.189-5.195,5.189
			c-2.873,0-5.193-2.324-5.193-5.189c0-2.871,2.32-5.188,5.193-5.188C109.029,66.834,111.359,69.151,111.359,72.022z"/>
		<path fill="none" stroke="#FEBE10" stroke-width="4" stroke-miterlimit="10" d="M111.359,105.383c0,2.862-2.33,5.187-5.195,5.187
			c-2.873,0-5.193-2.324-5.193-5.187c0-2.866,2.32-5.193,5.193-5.193C109.029,100.189,111.359,102.517,111.359,105.383z"/>
		<path fill="none" stroke="#FEBE10" stroke-width="4" stroke-miterlimit="10" d="M83.025,42.015c0,0.196-0.152,0.351-0.346,0.351
			H25.105c-0.196,0-0.351-0.155-0.351-0.351V10.699c0-0.192,0.155-0.353,0.351-0.353h57.574c0.193,0,0.346,0.161,0.346,0.353v7.662"
			/>
		<path fill="none" stroke="#FEBE10" stroke-width="4" stroke-miterlimit="10" d="M24.755,42.719c0-0.192,0.155-0.353,0.351-0.353
			h57.574c0.193,0,0.346,0.161,0.346,0.353v31.32c0,0.191-0.152,0.349-0.346,0.349H25.105c-0.196,0-0.351-0.157-0.351-0.349V66.24"
			/>
		<path fill="none" stroke="#FEBE10" stroke-width="4" stroke-miterlimit="10" d="M82.679,58.381c0.193,0,0.346,0.157,0.346,0.347
			v8.023"/>
		<path fill="none" stroke="#FEBE10" stroke-width="4" stroke-miterlimit="10" d="M83.025,55.781h22.787
			c0.197,0,0.352,0.155,0.352,0.351v9.637"/>
		<path fill="none" stroke="#FEBE10" stroke-width="4" stroke-miterlimit="10" d="M106.164,111.683v9.636
			c0,0.19-0.154,0.348-0.352,0.348H48.244c-0.198,0-0.353-0.157-0.353-0.348V73.841"/>
	</g>
</g>
</svg>
